<?xml version="1.0" encoding="utf-8"?>
<!-- Generator: Adobe Illustrator 23.0.5, SVG Export Plug-In . SVG Version: 6.00 Build 0)  -->
<svg version="1.1" id="Слой_1" xmlns="http://www.w3.org/2000/svg" xmlns:xlink="http://www.w3.org/1999/xlink" x="0px" y="0px"
	 viewBox="0 0 650.3 642.8" style="enable-background:new 0 0 650.3 642.8;" xml:space="preserve">
<style type="text/css">
	.st0{opacity:0.4;fill:#CCCDCF;enable-background:new    ;}
	.st1{fill:#FFFFFF;}
	.st2{fill:#EAF4F7;}
	.st3{fill:none;stroke:#363A5A;stroke-width:6;stroke-miterlimit:10;}
	.st4{fill:none;stroke:#363A5A;stroke-width:4;stroke-linecap:round;stroke-linejoin:round;}
	.st5{fill:none;stroke:#363A5A;stroke-width:4;stroke-linecap:round;stroke-linejoin:round;stroke-dasharray:10.1761,15.2642;}
	.st6{opacity:0.22;fill:#3DC0CB;enable-background:new    ;}
	.st7{fill:#3DC0CB;}
	.st8{fill:#64C7CF;}
	.st9{fill:#87D5F7;stroke:#259AD6;stroke-width:4;stroke-linecap:round;stroke-linejoin:round;}
	.st10{fill:#FDDCBF;stroke:#ECB072;stroke-width:4;stroke-linecap:round;stroke-linejoin:round;}
	.st11{fill:#EE4637;}
	.st12{fill:#CD3C27;}
	.st13{fill:#F07378;}
	.st14{fill:none;stroke:#363A5A;stroke-width:6;stroke-linecap:round;stroke-linejoin:round;}
</style>
<title>109-map-location</title>
<path class="st0" d="M630,517.7l-137.7,86.8c-14.3,9-31.8,11.2-47.8,6L293.5,562c-16.1-5.2-33.8-2.9-48.1,6.2L135,638.8
	c-12,7.6-28,4-35.6-8c-1.3-2.1-2.3-4.3-3-6.7L1,289.7c-3.1-11,1.4-22.8,11-28.9l139.2-87.9c15.6-9.9,34.8-12.3,52.4-6.7l146.1,47
	c17.7,5.7,36.9,3.2,52.6-6.8l104.6-66.6c12-7.7,28-4.1,35.6,7.9c1.3,2.1,2.4,4.4,3,6.8l95.4,334.3
	C644.1,499.8,639.6,511.5,630,517.7z"/>
<path class="st1" d="M635.3,482.2L517.8,557c-15.6,10-34.9,12.4-52.6,6.8l-146.1-47c-17.6-5.7-36.8-3.2-52.4,6.7l-126.3,79.8
	c-12,7.6-28,4-35.6-8c-1.3-2.1-2.3-4.3-3-6.7L6.4,254.2c-3.1-11,1.3-22.8,11-28.9l139.2-88c15.6-9.9,34.8-12.3,52.4-6.7l146.1,47
	c17.7,5.7,36.9,3.2,52.6-6.8l104.6-66.6c12-7.7,28-4.1,35.6,7.9c1.3,2.1,2.4,4.4,3,6.8l95.4,334.3C649.4,464.3,645,476,635.3,482.2z
	"/>
<path class="st2" d="M305,479l-21.9-61.7l-103.3,35.4l-32.3-93.6l-84.2,16.7l59,206.8c0.5,1.9,2.2,3.1,4.2,3.1
	c0.8,0,1.6-0.2,2.3-0.7L249,509.2C248.4,508.6,305,479,305,479z"/>
<path class="st3" d="M635.3,482.2L517.8,557c-15.6,10-34.9,12.4-52.6,6.8l-146.1-47c-17.6-5.7-36.8-3.2-52.4,6.7l-126.3,79.8
	c-12,7.6-28,4-35.6-8c-1.3-2.1-2.3-4.3-3-6.7L6.4,254.2c-3.1-11,1.3-22.8,11-28.9l139.2-88c15.6-9.9,34.8-12.3,52.4-6.7l146.1,47
	c17.7,5.7,36.9,3.2,52.6-6.8l104.6-66.6c12-7.7,28-4.1,35.6,7.9c1.3,2.1,2.4,4.4,3,6.8l95.4,334.3C649.4,464.3,645,476,635.3,482.2z
	"/>
<path class="st4" d="M196.6,440.6c0,0,1.8-0.5,4.8-1.3"/>
<path class="st5" d="M215.9,434.6c21.2-7.4,52.4-20.9,52.8-37c0.5-21.3-102.7-127.9-47.2-134.3C406.8,241.9,323.8,396,408.3,392.5
	c35.7-1.5-30.3-50.5,71.7-86c15.1-5.3,7.6-43.7,2.5-63.8"/>
<path class="st4" d="M480.5,235.3c-0.8-3-1.4-4.8-1.4-4.8"/>
<circle class="st6" cx="190.1" cy="443.3" r="48.2"/>
<circle class="st7" cx="190.1" cy="443.3" r="27.9"/>
<path class="st8" d="M190.1,415.3c-8.7,0-16.9,4-22.2,10.9c12.8-8.7,30.1-5.4,38.8,7.4c6.8,10,6.4,23.2-1,32.7
	c12.8-8.7,16.1-26.1,7.4-38.8C208.1,419.9,199.4,415.3,190.1,415.3L190.1,415.3z"/>
<circle class="st3" cx="190.1" cy="443.3" r="27.9"/>
<path class="st9" d="M202.9,193.9l80.2,15.2l-18.4-32.4l-66.3-23.1c-7.7-2.7-16.3-2.2-23.6,1.4L28.9,243.5c-1.6,1-2.4,3-1.8,4.8
	l23.5,82.4l64.1-15.8l-11.8-47.2L202.9,193.9z"/>
<polygon class="st10" points="329.9,398 375.6,409.5 397.8,460.2 348.5,452.1 "/>
<path class="st2" d="M480,246.2c-37.2,0-67.3-10.8-67.3-24.1S442.8,198,480,198s67.3,10.8,67.3,24.1S517.1,246.2,480,246.2z"/>
<polygon class="st10" points="501.1,382.6 585,346 618.2,447 482.3,524.3 457.3,454 510.5,424.1 "/>
<path class="st11" d="M579,104.8C579,47,532.1,0.4,475.3,3.1C424.4,5.5,381,48.9,381,101.2c0,75.7,99,134.1,99,134.1
	S579,177,579,104.8z"/>
<path class="st12" d="M516.1,206c-16.1,12.5-38.6,12.5-54.6-0.2c-29.3-23.2-71.7-65.3-71.7-114.9c0.1-21,7-41.5,19.8-58.2
	C392.1,50.6,381,74.7,381,101.2c0,75.7,99,134.1,99,134.1s40.4-23.8,69.6-59.8C539.2,186.6,528.1,196.8,516.1,206z"/>
<path class="st13" d="M475.3,3.1c-17.8,0.9-35.1,6.7-49.9,16.7c11.7-5.6,24.3-8.8,37.2-9.5C519.4,7.6,566.3,54.2,566.3,112
	c0,56.6-60.9,104.7-87.2,122.9c0.5,0.3,0.8,0.5,0.8,0.5S579,177,579,104.8C579,47,532.1,0.4,475.3,3.1z"/>
<path class="st1" d="M480,143.7c-22.5,0-40.8-18.2-40.8-40.8s18.2-40.8,40.8-40.8c22.5,0,40.8,18.2,40.8,40.8c0,0,0,0,0,0
	C520.7,125.4,502.5,143.7,480,143.7z"/>
<path class="st3" d="M480,143.7c-22.5,0-40.8-18.2-40.8-40.8s18.2-40.8,40.8-40.8c22.5,0,40.8,18.2,40.8,40.8c0,0,0,0,0,0
	C520.7,125.4,502.5,143.7,480,143.7z"/>
<path class="st14" d="M579,104.8C579,47,532.1,0.4,475.3,3.1C424.4,5.5,381,48.9,381,101.2c0,75.7,99,134.1,99,134.1
	S579,177,579,104.8z"/>
</svg>
